<?xml version="1.0" standalone="no"?>
<!DOCTYPE svg PUBLIC "-//W3C//DTD SVG 20010904//EN"
 "http://www.w3.org/TR/2001/REC-SVG-20010904/DTD/svg10.dtd">
<svg version="1.0" xmlns="http://www.w3.org/2000/svg"
 width="600.000000pt" height="600.000000pt" viewBox="0 0 600.000000 600.000000"
 preserveAspectRatio="xMidYMid meet">
<metadata>
Created by potrace 1.16, written by Peter Selinger 2001-2019
</metadata>
<g transform="translate(0.000000,600.000000) scale(0.100000,-0.100000)"
fill="#000000" stroke="none">
<path d="M0 3000 l0 -3000 3000 0 3000 0 0 3000 0 3000 -3000 0 -3000 0 0
-3000z m2364 2736 c18 -7 43 -27 55 -44 l21 -30 0 -1619 c0 -1703 -3 -1812
-45 -1893 -22 -42 -62 -81 -385 -368 -146 -129 -269 -240 -275 -246 -5 -6 -44
-41 -85 -77 -82 -71 -140 -122 -210 -185 -63 -57 -348 -295 -388 -324 -38 -28
-41 -40 -9 -40 13 0 89 52 192 133 191 150 392 304 665 511 185 140 427 327
615 474 55 44 113 87 130 98 28 18 69 19 1441 19 l1413 0 28 -21 c58 -43 58
-43 55 -474 -1 -217 -4 -412 -8 -433 -4 -25 -18 -51 -43 -75 -99 -100 -866
-779 -919 -814 -26 -17 -120 -18 -1982 -18 -1288 0 -1967 4 -1991 10 -20 6
-52 25 -71 43 -68 65 -63 -147 -66 2442 -2 2158 -1 2353 14 2400 15 44 44 78
247 282 126 128 244 239 261 247 27 13 117 16 669 16 521 0 644 -3 671 -14z"/>
</g>
</svg>
